<svg xmlns="http://www.w3.org/2000/svg" xmlns:xlink="http://www.w3.org/1999/xlink" version="1.1" id="Calque_1" x="0px" y="0px" width="150px" height="150px" viewBox="0 0 150 150" enable-background="new 0 0 150 150" xml:space="preserve">
<g>
	<path fill="#000000" d="M35.625,54.047c2.57,0,4.758,0.374,6.562,1.123c1.804,0.749,3.271,1.737,4.404,2.965   c1.132,1.229,1.958,2.629,2.476,4.203c0.518,1.574,0.777,3.205,0.777,4.893c0,1.65-0.259,3.272-0.777,4.864   c-0.518,1.593-1.344,3.003-2.476,4.232c-1.132,1.229-2.6,2.216-4.404,2.964c-1.804,0.749-3.992,1.123-6.562,1.123h-9.499V95.15   h-9.038V54.047H35.625z M33.149,73.39c1.036,0,2.034-0.076,2.994-0.23c0.958-0.153,1.803-0.451,2.533-0.893   c0.729-0.441,1.314-1.065,1.756-1.871c0.441-0.806,0.662-1.861,0.662-3.166c0-1.304-0.221-2.36-0.662-3.166   c-0.441-0.806-1.027-1.43-1.756-1.871c-0.729-0.441-1.574-0.739-2.533-0.893c-0.96-0.153-1.958-0.23-2.994-0.23h-7.023V73.39   H33.149z"/>
	<path fill="#000000" d="M81.851,65.014c-0.537-0.864-1.209-1.621-2.015-2.274c-0.806-0.652-1.718-1.161-2.734-1.525   c-1.018-0.365-2.083-0.547-3.195-0.547c-2.035,0-3.762,0.394-5.181,1.18c-1.42,0.787-2.572,1.842-3.454,3.167   c-0.883,1.324-1.525,2.831-1.929,4.519c-0.403,1.689-0.604,3.435-0.604,5.239c0,1.727,0.202,3.406,0.604,5.037   c0.403,1.632,1.045,3.1,1.929,4.404c0.882,1.305,2.034,2.351,3.454,3.137c1.419,0.787,3.146,1.181,5.181,1.181   c2.763,0,4.922-0.844,6.476-2.533c1.555-1.688,2.504-3.915,2.85-6.678h8.751c-0.23,2.571-0.826,4.894-1.785,6.966   c-0.96,2.072-2.227,3.838-3.8,5.296c-1.573,1.459-3.416,2.572-5.526,3.339c-2.111,0.768-4.433,1.151-6.965,1.151   c-3.147,0-5.978-0.547-8.491-1.641c-2.514-1.094-4.634-2.6-6.361-4.519s-3.051-4.174-3.972-6.765   c-0.921-2.591-1.382-5.383-1.382-8.376c0-3.07,0.46-5.92,1.382-8.549c0.921-2.628,2.245-4.922,3.972-6.879   c1.727-1.958,3.847-3.492,6.361-4.605c2.513-1.113,5.344-1.669,8.491-1.669c2.263,0,4.404,0.327,6.418,0.979   c2.015,0.653,3.818,1.603,5.411,2.85c1.593,1.248,2.907,2.792,3.944,4.634c1.036,1.842,1.688,3.953,1.957,6.333h-8.751   C82.733,66.827,82.388,65.877,81.851,65.014z"/>
	<path fill="#000000" d="M115.873,54.047c2.648,0,5.113,0.423,7.397,1.267c2.283,0.845,4.26,2.111,5.93,3.799   c1.669,1.689,2.974,3.8,3.914,6.333c0.94,2.533,1.411,5.508,1.411,8.923c0,2.994-0.385,5.757-1.151,8.29   c-0.769,2.533-1.929,4.721-3.483,6.562c-1.554,1.843-3.492,3.291-5.814,4.347s-5.057,1.583-8.203,1.583h-17.73V54.047H115.873z    M115.24,87.552c1.304,0,2.57-0.211,3.799-0.634c1.228-0.422,2.322-1.122,3.281-2.101c0.959-0.979,1.728-2.255,2.303-3.829   c0.576-1.573,0.864-3.491,0.864-5.756c0-2.072-0.202-3.943-0.604-5.613c-0.403-1.669-1.065-3.099-1.986-4.289   c-0.921-1.189-2.14-2.101-3.655-2.734c-1.517-0.633-3.388-0.95-5.613-0.95h-6.447v25.906H115.24z"/>
</g>
</svg>